<svg width="24" height="24" fill="none" xmlns="http://www.w3.org/2000/svg">
    <circle opacity=".8" cx="12" cy="12" r="12" fill="#D9D9D9"/>
    <path d="M10.286 6h3.428a1.714 1.714 0 1 0-3.428 0ZM9 6a3 3 0 1 1 6 0h4.929a.643.643 0 0 1 0 1.286h-1.132l-1.003 10.38a3.214 3.214 0 0 1-3.2 2.905H9.406a3.214 3.214 0 0 1-3.2-2.904L5.204 7.286H4.07a.643.643 0 1 1 0-1.286H9Zm1.714 4.071a.643.643 0 1 0-1.285 0V16.5a.643.643 0 0 0 1.285 0v-6.429Zm3.215-.642a.643.643 0 0 1 .642.642V16.5a.643.643 0 0 1-1.285 0v-6.429a.643.643 0 0 1 .643-.642Zm-6.443 8.114a1.928 1.928 0 0 0 1.92 1.743h5.188a1.929 1.929 0 0 0 1.92-1.743l.992-10.257H6.494l.992 10.257Z" fill="red"/>
</svg>
